<?xml version="1.0" standalone="no"?>
<!DOCTYPE svg PUBLIC "-//W3C//DTD SVG 20010904//EN"
 "http://www.w3.org/TR/2001/REC-SVG-20010904/DTD/svg10.dtd">
<svg version="1.0" xmlns="http://www.w3.org/2000/svg"
 width="566.000000pt" height="155.000000pt" viewBox="0 0 566.000000 155.000000"
 preserveAspectRatio="xMidYMid meet">

<g transform="translate(0.000000,155.000000) scale(0.100000,-0.100000)"
fill="#000000" stroke="none">
<path d="M949 1350 c-69 -36 -125 -128 -189 -310 -19 -52 -38 -98 -44 -102
-15 -10 -74 1 -116 22 -111 56 -84 217 46 277 30 14 53 27 50 30 -3 3 -27 0
-55 -7 -62 -15 -135 -75 -151 -126 -15 -43 -8 -105 14 -139 23 -34 89 -66 152
-72 30 -3 54 -11 54 -17 0 -6 -15 -40 -33 -76 l-32 -65 -92 3 c-116 5 -192
-15 -240 -63 -30 -30 -34 -40 -31 -77 3 -36 9 -46 38 -66 29 -20 44 -23 86
-19 71 7 129 39 196 110 l58 60 82 -22 c99 -27 184 -70 234 -119 59 -57 80
-127 49 -168 -19 -24 -19 -34 0 -34 19 0 45 51 45 90 0 45 -33 102 -87 150
-51 44 -179 111 -250 130 -24 6 -43 16 -42 23 0 7 17 43 37 81 35 65 40 70 88
86 150 48 289 204 302 340 4 42 1 52 -21 74 -32 32 -94 34 -148 6z m121 -45
c17 -21 8 -89 -20 -149 -46 -95 -187 -216 -253 -216 -24 0 -20 13 54 167 69
143 127 213 176 213 17 0 36 -7 43 -15z m-470 -599 c0 -23 -79 -104 -123 -125
-87 -42 -181 -20 -175 41 6 59 89 97 216 98 63 0 82 -3 82 -14z"/>
<path d="M3534 1350 c-26 -17 -38 -18 -90 -10 -137 23 -334 -3 -458 -59 -143
-65 -199 -200 -117 -282 50 -49 114 -56 193 -19 29 14 63 69 56 91 -3 9 -13
-1 -25 -26 -36 -69 -100 -92 -169 -59 -62 30 -67 124 -9 192 31 37 120 84 215
114 63 19 97 23 207 23 72 0 134 -3 138 -6 3 -4 -25 -45 -62 -92 -38 -48 -99
-143 -138 -218 -85 -161 -161 -279 -181 -279 -8 0 -40 13 -72 29 -113 57 -179
61 -227 13 -26 -26 -33 -69 -15 -102 5 -10 30 -26 55 -35 63 -24 153 -16 227
20 l56 28 49 -20 c122 -53 285 -56 388 -9 180 82 205 245 51 327 -25 13 -46
27 -46 31 0 3 18 9 39 13 49 8 113 49 135 85 19 33 20 86 3 117 -21 38 -82 76
-171 107 -15 5 -16 9 -6 21 20 24 8 26 -26 5z m132 -111 c18 -17 24 -33 24
-67 0 -39 -5 -50 -43 -87 -50 -50 -108 -70 -182 -61 -91 10 -95 -20 -5 -44
113 -30 180 -88 180 -156 0 -53 -56 -124 -124 -159 -53 -27 -69 -30 -140 -29
-77 2 -208 32 -228 52 -6 6 9 30 33 58 50 58 119 164 214 329 75 131 123 206
139 217 14 9 104 -27 132 -53z m-678 -504 c40 -19 72 -39 72 -45 0 -14 -72
-46 -123 -55 -88 -17 -152 60 -97 115 29 29 65 25 148 -15z"/>
<path d="M4292 1172 c-15 -16 -75 -125 -134 -243 -103 -206 -147 -274 -171
-266 -31 10 -13 108 34 182 30 47 25 61 -15 51 -14 -3 -33 -25 -51 -58 -65
-121 -115 -175 -149 -162 -42 16 7 138 90 222 30 29 62 52 73 52 12 0 21 5 21
10 0 19 -63 10 -105 -15 -72 -42 -135 -144 -134 -220 0 -87 51 -99 122 -28 47
46 47 46 47 19 0 -69 53 -88 111 -39 l32 28 -7 -28 c-6 -27 -5 -28 26 -25 27
2 34 8 36 28 8 74 26 111 78 160 54 51 97 75 121 66 18 -7 16 -36 -4 -58 -30
-34 8 -19 44 17 28 28 34 41 31 67 -2 28 -7 34 -31 36 -37 4 -105 -36 -152
-90 -31 -36 -36 -39 -30 -18 10 37 101 205 145 271 32 47 37 58 24 63 -23 9
-24 8 -52 -22z"/>
<path d="M2045 1130 c-7 -11 6 -34 48 -85 38 -46 42 -24 7 39 -32 56 -43 65
-55 46z"/>
<path d="M1876 1084 c-19 -19 -20 -36 -4 -52 16 -16 23 -15 42 4 21 21 20 41
-3 54 -15 7 -23 6 -35 -6z"/>
<path d="M2253 1048 c-5 -7 -17 -47 -27 -88 -23 -94 -64 -183 -110 -236 -37
-44 -86 -70 -111 -60 -22 8 -35 49 -28 89 5 30 10 35 59 52 59 20 111 64 121
103 12 50 -31 75 -88 52 -44 -19 -105 -91 -144 -173 -19 -42 -49 -87 -66 -102
-76 -63 -85 9 -20 153 24 51 40 100 37 108 -8 21 -56 18 -56 -3 0 -44 -77
-210 -119 -258 l-26 -30 32 28 31 29 14 -29 c10 -22 21 -29 49 -31 30 -3 42 3
77 38 l41 42 7 -26 c9 -37 41 -56 91 -56 62 0 108 45 167 165 48 96 58 105
100 89 22 -9 20 -32 -9 -82 -39 -69 -49 -119 -30 -148 10 -15 25 -24 42 -24
21 0 24 3 15 12 -20 20 -13 60 28 153 22 49 40 95 40 102 0 9 -15 13 -48 13
-60 0 -67 6 -42 38 23 28 26 62 8 80 -15 15 -23 15 -35 0z m-113 -115 c0 -34
-40 -83 -85 -105 -24 -12 -47 -19 -51 -16 -9 9 14 46 58 94 42 46 78 58 78 27z"/>
<path d="M4742 1048 c-7 -7 -12 -20 -12 -30 0 -10 -13 -59 -30 -110 -16 -51
-27 -94 -25 -96 3 -3 7 4 10 14 25 79 44 95 89 78 23 -9 20 -27 -15 -94 -48
-93 -40 -160 19 -160 20 0 23 3 14 12 -20 20 -14 57 28 150 22 50 40 97 40
104 0 10 -14 14 -48 14 -60 0 -67 6 -42 38 11 13 20 34 20 46 0 21 -17 46 -30
46 -3 0 -11 -5 -18 -12z"/>
<path d="M2525 951 c-54 -32 -96 -92 -139 -194 -8 -21 -11 -35 -6 -32 6 4 15
-6 20 -21 6 -15 18 -33 28 -40 26 -20 90 -17 129 7 31 19 93 110 92 134 0 6
-8 -5 -17 -23 -25 -47 -88 -109 -118 -116 -44 -11 -64 8 -64 65 0 49 1 50 38
65 90 35 132 69 147 120 13 49 -53 70 -110 35z m85 -23 c0 -11 -11 -36 -24
-53 -25 -33 -92 -72 -104 -60 -10 10 29 74 65 106 40 35 63 37 63 7z"/>
<path d="M4545 951 c-44 -26 -79 -71 -126 -162 -46 -88 -77 -119 -120 -119
-39 0 -63 46 -56 107 5 50 -3 54 -32 17 -25 -31 -27 -74 -6 -114 33 -64 102
-64 164 1 42 43 51 47 51 24 0 -30 38 -55 83 -55 63 0 123 47 147 116 8 25 8
26 -3 10 -28 -44 -89 -104 -113 -110 -13 -4 -34 -2 -45 4 -17 10 -20 19 -17
63 l3 52 54 19 c30 11 69 35 87 53 74 74 17 149 -71 94z m85 -23 c0 -30 -43
-82 -85 -102 -51 -25 -60 -12 -25 39 52 75 110 109 110 63z"/>
<path d="M1055 944 c-19 -19 -65 -108 -65 -126 0 -7 -10 -36 -22 -65 -20 -49
-20 -53 -4 -77 18 -28 68 -36 82 -14 4 7 3 8 -5 4 -6 -4 -19 -2 -27 5 -21 18
-10 57 50 174 28 55 52 103 54 108 7 14 -47 7 -63 -9z"/>
<path d="M1222 948 c-5 -7 -26 -47 -47 -88 -20 -41 -55 -102 -77 -135 -29 -46
-32 -52 -10 -27 33 37 42 40 42 11 0 -48 16 -58 89 -58 l69 0 38 65 c40 68
109 143 143 156 30 11 27 -10 -15 -93 -34 -68 -41 -119 -19 -125 6 -2 25 23
43 55 19 32 55 83 80 112 39 47 41 49 9 20 -42 -40 -45 -36 -17 19 58 114 -12
109 -132 -8 -27 -25 -48 -42 -48 -37 0 5 16 36 36 67 34 57 37 78 9 78 -24 0
-47 -34 -108 -154 -32 -63 -68 -122 -78 -132 -29 -26 -54 -7 -53 39 1 39 52
154 89 203 13 17 21 34 18 38 -11 11 -50 7 -61 -6z"/>
<path d="M4016 939 c12 -13 20 -16 22 -9 3 7 -2 16 -9 21 -25 16 -32 9 -13
-12z"/>
<path d="M4977 948 c-9 -7 -39 -61 -66 -120 l-51 -108 18 -32 c35 -63 105 -46
164 39 16 25 32 42 34 40 3 -3 -8 -38 -23 -78 l-28 -74 -55 -17 c-30 -10 -80
-25 -111 -33 -67 -18 -116 -49 -146 -94 -45 -66 -17 -111 69 -111 94 0 175 60
250 185 20 33 47 61 77 79 41 25 40 28 -4 10 -9 -4 -15 0 -15 9 0 25 70 219
96 266 13 24 24 45 24 47 0 2 -11 4 -23 4 -29 0 -47 -19 -82 -90 -35 -69 -95
-158 -129 -189 -21 -20 -28 -22 -41 -11 -23 19 -12 56 49 175 28 55 52 103 54
108 6 12 -43 8 -61 -5z m13 -388 c0 -18 -134 -152 -173 -171 -53 -28 -91 -22
-95 13 -4 38 23 85 61 105 39 20 165 62 190 63 9 0 17 -4 17 -10z"/>
<path d="M1658 913 c-44 -24 -68 -53 -33 -40 27 11 26 -13 -5 -70 -31 -60 -39
-120 -18 -141 7 -7 25 -12 42 -12 27 0 28 1 11 14 -26 19 -16 66 39 177 25 50
46 93 46 95 0 12 -41 0 -82 -23z"/>
<path d="M5226 753 c-6 -14 -5 -15 5 -6 7 7 10 15 7 18 -3 3 -9 -2 -12 -12z"/>
<path d="M5179 683 c-13 -16 -12 -17 4 -4 9 7 17 15 17 17 0 8 -8 3 -21 -13z"/>
</g>
</svg>
